<?xml version="1.0" encoding="UTF-8" standalone="no"?>
<svg
   width="1920"
   height="1080"
   viewBox="0 0 1920 1080"
   fill="none"
   version="1.1"
   id="svg206"
   sodipodi:docname="live-overlay.svg"
   inkscape:version="1.2.2 (b0a8486541, 2022-12-01)"
   inkscape:export-filename="Live Overlay.png"
   inkscape:export-xdpi="96"
   inkscape:export-ydpi="96"
   xmlns:inkscape="http://www.inkscape.org/namespaces/inkscape"
   xmlns:sodipodi="http://sodipodi.sourceforge.net/DTD/sodipodi-0.dtd"
   xmlns="http://www.w3.org/2000/svg"
   xmlns:svg="http://www.w3.org/2000/svg">
  <defs
     id="defs210" />
  <sodipodi:namedview
     id="namedview208"
     pagecolor="#ffffff"
     bordercolor="#666666"
     borderopacity="1.0"
     inkscape:showpageshadow="2"
     inkscape:pageopacity="0.0"
     inkscape:pagecheckerboard="0"
     inkscape:deskcolor="#d1d1d1"
     showgrid="false"
     inkscape:zoom="0.5"
     inkscape:cx="986"
     inkscape:cy="721"
     inkscape:window-width="1920"
     inkscape:window-height="1055"
     inkscape:window-x="0"
     inkscape:window-y="0"
     inkscape:window-maximized="1"
     inkscape:current-layer="svg206" />
  <mask
     id="mask1_782_369"
     style="mask-type:alpha"
     maskUnits="userSpaceOnUse"
     x="1478"
     y="895"
     width="321"
     height="98">
    <rect
       x="1478.33"
       y="896"
       width="320.361"
       height="96.6452"
       fill="#D9D9D9"
       id="rect143" />
  </mask>
  <mask
     id="mask2_782_369"
     style="mask-type:alpha"
     maskUnits="userSpaceOnUse"
     x="1478"
     y="895"
     width="303"
     height="98">
    <rect
       x="1478.33"
       y="896"
       width="302.464"
       height="96.6452"
       fill="#D9D9D9"
       id="rect154" />
  </mask>
  <mask
     id="mask3_782_369"
     style="mask-type:alpha"
     maskUnits="userSpaceOnUse"
     x="139"
     y="896"
     width="203"
     height="97">
    <rect
       x="341.242"
       y="992.645"
       width="201.344"
       height="96.6452"
       transform="rotate(-180 341.242 992.645)"
       fill="#D9D9D9"
       id="rect167" />
  </mask>
  <g
     id="g521"
     inkscape:label="main group">
    <path
       id="rect165"
       style="fill:#171717;stroke-width:1.16503"
       d="m 186.46761,896.04358 1594.28539,-0.0768 -46.5317,96.63967 -1593.98949,0.0372 z"
       sodipodi:nodetypes="ccccc"
       inkscape:label="black background" />
    <g
       id="g1549"
       inkscape:label="awt logo">
      <path
         d="M1591 933.584L1599.51 920.182H1603.94L1607.1 933.584H1602.62L1600.47 922.268H1602.22L1595.75 933.584H1591ZM1594.93 931.248L1596.73 927.993H1602.87L1603.37 931.248H1594.93Z"
         fill="white"
         id="path178" />
      <path
         d="M1615.23 933.89C1613.86 933.89 1612.65 933.641 1611.62 933.143C1610.59 932.633 1609.79 931.931 1609.22 931.037C1608.66 930.131 1608.38 929.084 1608.38 927.897C1608.38 926.723 1608.58 925.644 1608.99 924.662C1609.41 923.679 1610 922.83 1610.75 922.115C1611.5 921.4 1612.39 920.852 1613.42 920.469C1614.45 920.073 1615.58 919.875 1616.81 919.875C1618.1 919.875 1619.24 920.105 1620.23 920.564C1621.22 921.024 1621.96 921.688 1622.44 922.556L1619.2 925.102C1618.92 924.604 1618.56 924.221 1618.11 923.953C1617.67 923.672 1617.14 923.532 1616.53 923.532C1615.99 923.532 1615.5 923.634 1615.06 923.838C1614.63 924.03 1614.25 924.311 1613.93 924.681C1613.62 925.038 1613.37 925.466 1613.19 925.964C1613.01 926.461 1612.92 927.01 1612.92 927.61C1612.92 928.133 1613.04 928.593 1613.27 928.989C1613.49 929.384 1613.81 929.691 1614.22 929.908C1614.64 930.125 1615.12 930.233 1615.67 930.233C1616.19 930.233 1616.7 930.112 1617.2 929.869C1617.7 929.627 1618.19 929.231 1618.65 928.682L1621.3 931.229C1620.48 932.224 1619.57 932.92 1618.57 933.316C1617.58 933.699 1616.46 933.89 1615.23 933.89Z"
         fill="white"
         id="path180" />
      <path
         d="M1621.83 933.584L1624.51 920.182H1630.5C1632.26 920.182 1633.63 920.571 1634.6 921.349C1635.57 922.115 1636.05 923.194 1636.05 924.585C1636.05 925.708 1635.77 926.691 1635.21 927.534C1634.66 928.376 1633.88 929.033 1632.86 929.506C1631.86 929.978 1630.67 930.214 1629.29 930.214H1624.98L1627.39 928.319L1626.34 933.584H1621.83ZM1630 933.584L1627.25 928.701H1631.89L1634.68 933.584H1630ZM1627.27 928.855L1625.69 926.806H1629.52C1630.15 926.806 1630.63 926.653 1630.97 926.346C1631.32 926.027 1631.49 925.587 1631.49 925.025C1631.49 924.54 1631.34 924.196 1631.03 923.992C1630.74 923.775 1630.33 923.666 1629.81 923.666H1626.32L1628.72 921.56L1627.27 928.855Z"
         fill="white"
         id="path182" />
      <path
         d="M1643.57 933.89C1642.18 933.89 1640.98 933.635 1639.96 933.124C1638.96 932.614 1638.18 931.912 1637.62 931.018C1637.07 930.112 1636.8 929.072 1636.8 927.897C1636.8 926.71 1637 925.632 1637.41 924.662C1637.83 923.679 1638.41 922.83 1639.16 922.115C1639.91 921.4 1640.8 920.852 1641.83 920.469C1642.86 920.073 1643.99 919.875 1645.21 919.875C1646.6 919.875 1647.79 920.13 1648.8 920.641C1649.81 921.152 1650.6 921.86 1651.14 922.766C1651.7 923.66 1651.98 924.694 1651.98 925.868C1651.98 927.055 1651.77 928.14 1651.35 929.123C1650.95 930.093 1650.37 930.935 1649.62 931.65C1648.87 932.365 1647.98 932.92 1646.95 933.316C1645.92 933.699 1644.79 933.89 1643.57 933.89ZM1643.95 930.233C1644.51 930.233 1645 930.125 1645.42 929.908C1645.85 929.691 1646.22 929.391 1646.53 929.008C1646.83 928.625 1647.06 928.191 1647.21 927.706C1647.37 927.208 1647.44 926.685 1647.44 926.136C1647.44 925.613 1647.33 925.159 1647.12 924.777C1646.91 924.381 1646.61 924.075 1646.22 923.858C1645.84 923.641 1645.37 923.532 1644.83 923.532C1644.28 923.532 1643.79 923.641 1643.36 923.858C1642.93 924.075 1642.56 924.374 1642.25 924.757C1641.95 925.14 1641.72 925.581 1641.57 926.078C1641.41 926.563 1641.34 927.08 1641.34 927.629C1641.34 928.14 1641.44 928.593 1641.64 928.989C1641.86 929.384 1642.16 929.691 1642.54 929.908C1642.93 930.125 1643.4 930.233 1643.95 930.233Z"
         fill="white"
         id="path184" />
      <path
         d="M1599.35 951.343L1597.74 937.941H1602.2L1603.48 949.256H1601.14L1607.03 937.941H1611.18L1612.31 949.256H1610.11L1615.97 937.941H1620.41L1613.45 951.343H1608.62L1607.6 942.076H1608.98L1604.18 951.343H1599.35Z"
         fill="white"
         id="path186" />
      <path
         d="M1626.08 951.649C1624.69 951.649 1623.48 951.394 1622.47 950.883C1621.46 950.373 1620.68 949.671 1620.11 948.777C1619.57 947.871 1619.29 946.831 1619.29 945.657C1619.29 944.469 1619.5 943.391 1619.9 942.421C1620.33 941.438 1620.91 940.589 1621.66 939.874C1622.41 939.16 1623.31 938.611 1624.34 938.228C1625.37 937.832 1626.5 937.634 1627.72 937.634C1629.11 937.634 1630.31 937.89 1631.31 938.4C1632.33 938.911 1633.12 939.619 1633.67 940.525C1634.23 941.419 1634.51 942.453 1634.51 943.627C1634.51 944.814 1634.3 945.899 1633.88 946.882C1633.47 947.852 1632.89 948.694 1632.14 949.409C1631.38 950.124 1630.49 950.679 1629.46 951.075C1628.43 951.458 1627.3 951.649 1626.08 951.649ZM1626.46 947.992C1627.02 947.992 1627.51 947.884 1627.93 947.667C1628.36 947.45 1628.73 947.15 1629.04 946.767C1629.35 946.384 1629.58 945.95 1629.73 945.465C1629.88 944.967 1629.96 944.444 1629.96 943.895C1629.96 943.372 1629.85 942.919 1629.63 942.536C1629.43 942.14 1629.13 941.834 1628.73 941.617C1628.35 941.4 1627.89 941.291 1627.34 941.291C1626.79 941.291 1626.3 941.4 1625.87 941.617C1625.43 941.834 1625.06 942.134 1624.76 942.517C1624.45 942.9 1624.22 943.34 1624.07 943.838C1623.92 944.323 1623.84 944.84 1623.84 945.388C1623.84 945.899 1623.94 946.352 1624.15 946.748C1624.36 947.144 1624.66 947.45 1625.05 947.667C1625.44 947.884 1625.91 947.992 1626.46 947.992Z"
         fill="white"
         id="path188" />
      <path
         d="M1634.75 951.343L1637.42 937.941H1643.42C1645.2 937.941 1646.57 938.33 1647.53 939.109C1648.5 939.874 1648.99 940.953 1648.99 942.344C1648.99 943.468 1648.71 944.45 1648.15 945.293C1647.6 946.135 1646.81 946.793 1645.79 947.265C1644.79 947.737 1643.6 947.973 1642.22 947.973H1637.9L1640.31 946.078L1639.26 951.343H1634.75ZM1642.93 951.343L1640.18 946.461H1644.82L1647.61 951.343H1642.93ZM1640.19 946.614L1638.61 944.565H1642.45C1643.07 944.565 1643.56 944.412 1643.9 944.106C1644.25 943.787 1644.42 943.346 1644.42 942.785C1644.42 942.3 1644.27 941.955 1643.96 941.751C1643.67 941.534 1643.26 941.425 1642.74 941.425H1639.24L1641.65 939.319L1640.19 946.614Z"
         fill="white"
         id="path190" />
      <path
         d="M1648.99 951.343L1651.66 937.941H1656.17L1654.21 947.839H1660.24L1659.54 951.343H1648.99Z"
         fill="white"
         id="path192" />
      <path
         d="M1660.78 951.343L1663.46 937.941H1669.5C1670.91 937.941 1672.13 938.17 1673.15 938.63C1674.17 939.089 1674.95 939.747 1675.5 940.602C1676.05 941.444 1676.32 942.453 1676.32 943.627C1676.32 944.814 1676.11 945.88 1675.69 946.824C1675.28 947.769 1674.7 948.579 1673.95 949.256C1673.21 949.932 1672.33 950.449 1671.31 950.807C1670.29 951.164 1669.17 951.343 1667.95 951.343H1660.78ZM1666 947.82H1668.1C1668.91 947.82 1669.57 947.648 1670.11 947.303C1670.66 946.946 1671.07 946.473 1671.35 945.886C1671.63 945.286 1671.77 944.623 1671.77 943.895C1671.77 943.372 1671.66 942.931 1671.45 942.574C1671.24 942.217 1670.93 941.942 1670.51 941.751C1670.1 941.559 1669.59 941.464 1668.98 941.464H1667.26L1666 947.82Z"
         fill="white"
         id="path194" />
      <path
         d="M1608.3 968.568L1610.27 958.708H1606.35L1607.06 955.217H1619.41L1618.71 958.708H1614.79L1612.82 968.568H1608.3Z"
         fill="white"
         id="path196" />
      <path
         d="M1625.25 968.873C1623.86 968.873 1622.66 968.619 1621.64 968.111C1620.63 967.602 1619.85 966.903 1619.29 966.013C1618.74 965.11 1618.47 964.073 1618.47 962.904C1618.47 961.721 1618.67 960.647 1619.08 959.68C1619.5 958.701 1620.09 957.856 1620.84 957.144C1621.59 956.432 1622.48 955.885 1623.51 955.503C1624.55 955.109 1625.67 954.912 1626.9 954.912C1628.29 954.912 1629.49 955.166 1630.49 955.675C1631.51 956.184 1632.3 956.889 1632.84 957.792C1633.4 958.682 1633.68 959.712 1633.68 960.882C1633.68 962.064 1633.47 963.145 1633.05 964.124C1632.65 965.091 1632.07 965.93 1631.31 966.642C1630.56 967.354 1629.67 967.907 1628.64 968.301C1627.61 968.683 1626.48 968.873 1625.25 968.873ZM1625.64 965.231C1626.2 965.231 1626.69 965.122 1627.11 964.906C1627.54 964.69 1627.91 964.391 1628.22 964.01C1628.52 963.628 1628.75 963.196 1628.91 962.713C1629.06 962.217 1629.13 961.696 1629.13 961.149C1629.13 960.628 1629.03 960.176 1628.81 959.795C1628.61 959.401 1628.31 959.095 1627.91 958.879C1627.53 958.663 1627.06 958.555 1626.52 958.555C1625.97 958.555 1625.48 958.663 1625.04 958.879C1624.61 959.095 1624.24 959.394 1623.93 959.776C1623.63 960.157 1623.4 960.596 1623.25 961.092C1623.09 961.575 1623.02 962.09 1623.02 962.637C1623.02 963.145 1623.12 963.597 1623.32 963.991C1623.54 964.385 1623.84 964.69 1624.22 964.906C1624.62 965.122 1625.09 965.231 1625.64 965.231Z"
         fill="white"
         id="path198" />
      <path
         d="M1640.68 968.873C1639.29 968.873 1638.13 968.613 1637.2 968.091C1636.27 967.557 1635.6 966.82 1635.21 965.879C1634.83 964.925 1634.76 963.819 1635.02 962.56L1636.49 955.217H1641L1639.55 962.484C1639.46 962.955 1639.43 963.361 1639.45 963.705C1639.48 964.048 1639.56 964.334 1639.7 964.563C1639.85 964.792 1640.06 964.964 1640.31 965.078C1640.57 965.18 1640.87 965.231 1641.23 965.231C1641.66 965.231 1642.03 965.142 1642.34 964.964C1642.66 964.786 1642.92 964.493 1643.12 964.086C1643.34 963.679 1643.51 963.145 1643.64 962.484L1645.09 955.217H1649.53L1648.02 962.751C1647.62 964.747 1646.81 966.267 1645.59 967.309C1644.37 968.352 1642.73 968.873 1640.68 968.873Z"
         fill="white"
         id="path200" />
      <path
         d="M1648.92 968.568L1651.6 955.217H1657.6C1659.37 955.217 1660.74 955.605 1661.71 956.381C1662.68 957.144 1663.16 958.218 1663.16 959.604C1663.16 960.723 1662.88 961.702 1662.32 962.541C1661.77 963.38 1660.99 964.035 1659.97 964.506C1658.96 964.976 1657.77 965.211 1656.39 965.211H1652.07L1654.48 963.323L1653.43 968.568H1648.92ZM1657.1 968.568L1654.35 963.705H1658.99L1661.79 968.568H1657.1ZM1654.37 963.857L1652.78 961.817H1656.62C1657.25 961.817 1657.73 961.664 1658.08 961.359C1658.42 961.041 1658.59 960.602 1658.59 960.043C1658.59 959.56 1658.44 959.216 1658.13 959.013C1657.84 958.797 1657.43 958.689 1656.91 958.689H1653.41L1655.82 956.591L1654.37 963.857Z"
         fill="white"
         id="path202" />
      <path
         d="M1601.67 973.741L1572.32 915L1543 973.749L1553.25 973.742C1553.25 973.742 1553.75 973.766 1553.79 973.725L1553.83 973.682L1552.92 973.352C1552.68 973.266 1552.44 973.179 1552.22 973.085C1551.33 972.708 1551.06 972.28 1550.75 971.563C1550.42 970.842 1550.38 970.055 1550.48 969.284C1550.57 968.508 1550.68 963.064 1557.13 956.113C1563.38 949.381 1571.55 949.204 1573.1 949.181C1581.07 949.06 1584.3 953.421 1584.72 953.899C1584.75 953.93 1584.75 953.968 1584.73 954.001C1584.71 954.033 1584.67 954.057 1584.62 954.063C1582.82 954.29 1580.71 954.854 1578.97 955.455C1574.36 956.752 1570.49 959.051 1567.79 960.644C1559.7 965.42 1554.5 973.156 1554.5 973.156C1556.85 970.435 1558.82 968.711 1562.43 965.815C1577.83 953.455 1592.79 970.971 1577.39 973.742L1601.67 973.741ZM1591.23 958.422C1591.23 958.455 1591.2 958.483 1591.16 958.5C1591.14 958.51 1591.11 958.515 1591.09 958.515C1591.07 958.515 1591.05 958.513 1591.04 958.508C1590.24 958.275 1589.46 958.039 1588.85 957.844C1588.58 957.757 1588.38 957.564 1588.33 957.326C1587.81 954.827 1586.54 952.871 1584.46 951.347C1583.54 950.674 1581.57 949.422 1578.67 948.609C1577.88 948.389 1577.07 948.213 1576.25 948.087L1576.25 948.09C1575.15 947.976 1573.81 947.902 1572.28 947.956C1570.76 948.011 1569.43 948.028 1568.35 948.219C1569.68 945.377 1571 943.066 1572.32 940.224C1572.32 940.224 1574.25 944.061 1574.74 945.068C1575.22 946.075 1575.46 946.635 1575.95 946.637C1583.55 946.671 1589.71 951.342 1590.81 955.72C1590.92 956.143 1591.27 957.209 1591.23 958.422Z"
         fill="white"
         id="path204" />
    </g>
    <path
       id="path139"
       d="M 122,992.645 168.533,896 c 12.8497,-0.085 -9.11988,0.0487 17.93539,0.0416 -14.50326,30.1799 -14.41778,30.08048 -46.23627,96.60341 z M 168.533,896 c -112.355333,-597.33333 -56.17767,-298.66667 0,0 z"
       style="fill:#fb8b24;fill-opacity:0.8509804"
       sodipodi:nodetypes="ccccccc"
       inkscape:label="orange right" />
    <path
       id="path1533"
       d="m 1734.22,992.60761 46.533,-96.645 c 12.8497,-0.085 -9.1199,0.0487 17.9354,0.0416 -14.5033,30.1799 -14.4178,30.08048 -46.2363,96.60341 z m 46.533,-96.645 c -112.3553,-597.33333 -56.1777,-298.66667 0,0 z"
       style="fill:#fb8b24;fill-opacity:0.85098"
       sodipodi:nodetypes="ccccccc"
       inkscape:label="orange left" />
  </g>
  <text
     xml:space="preserve"
     style="font-style:italic;font-weight:600;font-size:51.6793px;font-family:Montserrat;-inkscape-font-specification:'Montserrat Semi-Bold Italic';text-align:center;text-anchor:middle;fill:#ffffff;fill-opacity:1;stroke-width:1.91197;stroke-linecap:square;stroke-miterlimit:2.8;paint-order:stroke markers fill"
     x="278.53403"
     y="961.9295"
     id="text525"
     inkscape:label="text run"><tspan
       sodipodi:role="line"
       id="tspan523"
       x="278.53403"
       y="961.9295"
       style="stroke-width:1.91197">%{RUN}</tspan></text>
  <text
     xml:space="preserve"
     style="font-style:normal;font-weight:bold;font-size:60px;font-family:Exo;-inkscape-font-specification:'Exo, @wght=900';text-align:center;text-anchor:middle;fill:#ffffff;fill-opacity:1;stroke-width:1.91197;stroke-linecap:square;stroke-miterlimit:2.8;paint-order:stroke markers fill;font-stretch:normal;font-variant:normal;font-variation-settings:'wght' 900;font-variant-ligatures:normal;font-variant-caps:normal;font-variant-numeric:normal;font-variant-east-asian:normal"
     x="959.14728"
     y="961.9295"
     id="text1916"
     inkscape:label="text run"><tspan
       sodipodi:role="line"
       id="tspan1920">%{PILOT}</tspan></text>
</svg>
